<svg id="Layer_1" data-name="Layer 1" xmlns="http://www.w3.org/2000/svg" viewBox="0 0 128.24 128.24"><defs><style>.cls-1{fill:#c3d832;}</style></defs><circle class="cls-1" cx="64.12" cy="64.12" r="64.12"/><path d="M270.37,306.86v13H237.55A49.73,49.73,0,0,1,270.37,306.86Z" transform="translate(-207.04 -292.71)"/><path d="M270.37,321.4V344H222.85a49.9,49.9,0,0,1,13.06-22.58Z" transform="translate(-207.04 -292.71)"/><path d="M270.37,345.54v22.57H222.46a50.39,50.39,0,0,1,0-22.57Z" transform="translate(-207.04 -292.71)"/><path d="M270.37,369.68v22.57H235.91a49.81,49.81,0,0,1-13.06-22.57Z" transform="translate(-207.04 -292.71)"/><path d="M270.37,393.82v13a49.74,49.74,0,0,1-32.81-13Z" transform="translate(-207.04 -292.71)"/><path d="M304.76,319.84h-32.7v-13A49.76,49.76,0,0,1,304.76,319.84Z" transform="translate(-207.04 -292.71)"/><path d="M319.46,344h-47.4V321.4H306.4A49.9,49.9,0,0,1,319.46,344Z" transform="translate(-207.04 -292.71)"/><path d="M321.13,356.82a49.9,49.9,0,0,1-1.28,11.29H272.06V345.54h47.79A49.88,49.88,0,0,1,321.13,356.82Z" transform="translate(-207.04 -292.71)"/><path d="M304.76,393.82a49.8,49.8,0,0,1-32.7,13v-13Z" transform="translate(-207.04 -292.71)"/></svg>