<svg id="Layer_1" data-name="Layer 1" xmlns="http://www.w3.org/2000/svg" viewBox="0 0 157.91 34.15"><defs><style>.cls-1,.cls-2{fill:#c3d832;}.cls-2{font-size:36px;font-family:Microsoft-Yi-Baiti, Microsoft Yi Baiti;font-style:italic;letter-spacing:-0.04em;}.cls-3{fill:#231f20;letter-spacing:-0.04em;}</style></defs><circle class="cls-1" cx="17.07" cy="17.07" r="17.07"/><path d="M167.31,349.73v3.45h-8.74A13.26,13.26,0,0,1,167.31,349.73Z" transform="translate(-150.44 -345.96)"/><path d="M167.31,353.6v6H154.66a13.31,13.31,0,0,1,3.47-6Z" transform="translate(-150.44 -345.96)"/><path d="M167.31,360v6H154.55a13.45,13.45,0,0,1,0-6Z" transform="translate(-150.44 -345.96)"/><path d="M167.31,366.46v6h-9.18a13.31,13.31,0,0,1-3.47-6Z" transform="translate(-150.44 -345.96)"/><path d="M167.31,372.88v3.46a13.24,13.24,0,0,1-8.74-3.46Z" transform="translate(-150.44 -345.96)"/><path d="M176.47,353.18h-8.71v-3.45A13.31,13.31,0,0,1,176.47,353.18Z" transform="translate(-150.44 -345.96)"/><path d="M180.38,359.61H167.76v-6h9.14A13.24,13.24,0,0,1,180.38,359.61Z" transform="translate(-150.44 -345.96)"/><path d="M180.83,363a13,13,0,0,1-.35,3H167.76v-6h12.72A12.9,12.9,0,0,1,180.83,363Z" transform="translate(-150.44 -345.96)"/><path d="M176.47,372.88a13.27,13.27,0,0,1-8.71,3.46v-3.46Z" transform="translate(-150.44 -345.96)"/><text class="cls-2" transform="translate(36.12 27.93)">CRAF<tspan class="cls-3" x="68.47" y="0">TIZE</tspan></text></svg>